<?xml version="1.0" encoding="UTF-8" standalone="no"?>
<!DOCTYPE svg PUBLIC "-//W3C//DTD SVG 1.1//EN" "http://www.w3.org/Graphics/SVG/1.1/DTD/svg11.dtd">
<svg width="100%" height="100%" viewBox="0 0 500 500" version="1.1" xmlns="http://www.w3.org/2000/svg" xmlns:xlink="http://www.w3.org/1999/xlink" xml:space="preserve" xmlns:serif="http://www.serif.com/" style="fill-rule:evenodd;clip-rule:evenodd;stroke-linecap:round;stroke-linejoin:round;stroke-miterlimit:1.5;">
    <g id="Capa1">
        <g>
            <rect x="2.067" y="1.697" width="495.195" height="495.869" style="fill:white;stroke:white;stroke-width:59.59px;"/>
        </g>
    </g>
    <g>
        <path d="M244.995,16.984C248.253,17.007 251.469,16.988 253.992,16.994C267.981,97.557 306.823,163.563 370.5,214C395.319,232.904 421.816,243.227 452.997,245.99C453.019,248.905 453.001,251.85 452.999,253.998C417.197,258.237 385.365,272.239 358.5,296C301.368,346.581 266.469,407.561 252.935,482.98C249.228,482.971 248.077,482.96 245.008,482.965C233.204,412.511 201.362,352.546 149.5,304C130.034,285.555 107.701,271.555 82.5,262C70.322,258.603 57.471,255.944 44.982,254.008C45.011,251.494 44.997,248.579 44.982,245.978C68.87,243.591 90.721,236.946 111.5,225C172.181,184.563 213.681,129.397 236,59.5C240.001,44.996 242.662,31.813 244.995,16.984Z" style="fill:rgb(57,83,104);"/>
    </g>
    <g>
        <path d="M250.5,127.5L248.5,127.5C249.167,122.167 249.833,122.167 250.5,127.5Z" style="fill:white;"/>
    </g>
    <g>
        <path d="M248.5,127.5L250.5,127.5C263.105,177.261 290.839,215.746 333.568,243.651C338.45,246.111 343.382,248.627 348.5,250.5C325.442,260.386 305.942,275.053 290,294.5C270.721,318.059 257.554,344.725 250.5,374.5L248.5,374.5C237.804,330.995 215.137,295.162 180.5,267C171.262,260.212 161.262,254.712 150.5,250.5C173.881,241.053 193.381,226.386 209,206.5C227.987,183.192 241.154,156.859 248.5,127.5Z" style="fill:rgb(253,254,254);"/>
    </g>
    <g>
        <path d="M248.5,374.5C249.167,374.5 249.783,374.465 250.5,374.5C249.833,379.833 249.167,379.833 248.5,374.5Z" style="fill:white;"/>
    </g>
    <g>
        <path d="M188.815,89.013C194.905,87.65 201.09,88.137 204,93.5C209.171,118.178 218.505,141.178 232,162.5C238,171.167 244,179.833 250,188.5C265.207,168.101 277.874,146.101 288,122.5C291.892,112.823 294.559,102.823 296,92.5C299.438,87.919 305.608,87.23 311.202,88.671C326.957,95.261 345.044,109.776 360.5,124C372.652,135.318 384.652,146.818 396.5,158.5C415.911,148.082 436.788,142.468 458.5,145C478.321,148.736 487.428,162.143 486.5,182.5C484.379,206.531 477.045,228.864 464.5,249.5C473.799,266.234 480.633,283.901 485,302.5C488.419,317.038 487.61,331.56 479,343.5C470.844,352.768 460.156,356.007 448,355.5C440.012,355.359 432.179,354.192 424.5,352C414.39,348.63 404.39,345.297 394.5,342C372.245,366.264 347.579,387.598 320.5,406C315.611,408.862 310.444,411.029 305,412.5C301.794,412.856 298.644,411.388 297,408.5C291.072,381.979 280.739,357.313 266,334.5C260.913,326.659 255.58,318.992 250,311.5C227.085,341.329 210.585,374.329 200.5,410.5C198.697,412.399 195.256,413.197 192.76,412.751C177.825,407.734 165.835,398.084 153.5,388C136.262,373.766 119.928,358.432 104.5,342C95.942,344.927 87.276,347.927 78.5,351C66.79,354.952 54.79,356.285 42.5,355C28.411,352.91 18.247,345.596 15,331.5C11.171,314.881 13.823,298.396 20,282.5C24.509,271.317 29.676,260.483 35.5,250C25.917,233.914 19.083,216.747 15,198.5C12.006,184.67 12.081,170.56 19,158.5C26.929,146.923 38.319,143.182 52,144.5C70.145,145.495 87.312,150.162 103.5,158.5C124.87,136.285 147.87,116.118 172.5,98C178.431,94.207 182.251,90.862 188.815,89.013ZM182.5,99.5C193.8,138.264 212.133,173.431 237.5,205C229.373,216.126 220.207,226.292 210,235.5C187.912,214.07 164.079,194.903 138.5,178C130.001,173.252 121.668,168.252 113.5,163C122.5,152.667 132.167,143 142.5,134C156.026,122.635 169.359,111.135 182.5,99.5ZM315.5,99.5C340.785,118.605 364.452,139.772 386.5,163C350.917,182.74 318.584,206.906 289.5,235.5C279.6,226.102 270.6,215.935 262.5,205C281.292,180.174 296.792,153.341 309,124.5C311.892,116.33 314.058,107.997 315.5,99.5ZM43.5,158.5C60.65,157.211 77.235,162.6 92.5,171C73.841,192.159 57.008,214.659 42,238.5C32.563,221.52 26.729,203.353 24.5,184C24.721,170.652 30.053,161.238 43.5,158.5ZM443.5,158.5C467.654,157.092 477.82,168.425 474,192.5C471.055,208.667 465.722,224.001 458,238.5C442.625,215.092 425.792,192.758 407.5,171.5C418.875,165.155 430.383,159.831 443.5,158.5ZM101.5,175.5C114.989,182.41 127.655,190.576 139.5,200C159.289,215.625 178.289,232.125 196.5,249.5C168.047,278.465 136.547,303.465 102,324.5C81.023,301.708 62.856,276.874 47.5,250C62.622,223.05 80.622,198.217 101.5,175.5ZM397.5,175.5C418.914,197.657 436.914,222.324 451.5,249.5C446.44,259.955 440.606,269.955 434,279.5C422.721,295.048 410.721,310.048 398,324.5C363.589,303.103 331.756,278.27 302.5,250C331.334,221.287 363,196.453 397.5,175.5ZM249.5,220.5C258.315,230.151 266.981,239.985 275.5,250C267.013,259.822 258.513,269.655 250,279.5C241.537,269.368 232.704,259.535 223.5,250C232.747,240.592 241.414,230.759 249.5,220.5ZM41.5,261.5C56.781,285.023 73.781,307.356 92.5,328.5C79.094,335.857 64.761,340.19 49.5,341.5C33.309,340.809 24.935,332.12 24.916,316.037C25.796,296.828 32.517,278.615 41.5,261.5ZM457.5,261.5C468.797,280.229 476.032,300.56 473.954,322.232C471.798,335.339 463.276,341.22 450.5,341.5C435.693,340.299 421.693,336.299 408.5,329.5C407.479,328.998 407.312,328.332 408,327.5C426.256,306.754 442.756,284.754 457.5,261.5ZM209.5,263.5C219.71,273.211 229.044,283.711 237.5,295C218.567,319.347 203.067,345.847 191,374.5C188.041,383.004 185.707,391.671 184,400.5C158.829,381.17 135.329,359.837 113.5,336.5C144.148,320.009 172.148,299.843 197.5,276C201.704,271.964 205.704,267.798 209.5,263.5ZM288.5,263.5C299.619,273.779 310.952,283.946 322.5,294C342.631,309.904 363.964,324.071 386.5,336.5C364.271,359.342 340.771,380.676 316,400.5C311.569,380.875 304.569,362.208 295,344.5C284.914,327.322 274.08,310.655 262.5,294.5C271.19,284.147 279.856,273.814 288.5,263.5Z" style="fill:rgb(227,150,152);fill-opacity:0.98;"/>
    </g>
</svg>
